<?xml version="1.0" encoding="UTF-8" standalone="no"?>
<svg
   xmlns:dc="http://purl.org/dc/elements/1.1/"
   xmlns:cc="http://creativecommons.org/ns#"
   xmlns:rdf="http://www.w3.org/1999/02/22-rdf-syntax-ns#"
   xmlns:svg="http://www.w3.org/2000/svg"
   xmlns="http://www.w3.org/2000/svg"
   xmlns:sodipodi="http://sodipodi.sourceforge.net/DTD/sodipodi-0.dtd"
   xmlns:inkscape="http://www.inkscape.org/namespaces/inkscape"
   sodipodi:docname="mistertfy64black.svg"
   id="svg869"
   version="1.1"
   viewBox="0 0 530.63841 109.20706"
   height="412.75107"
   width="2005.5625"
   inkscape:version="1.0.2-2 (e86c870879, 2021-01-15)">
  <defs
     id="defs863" />
  <sodipodi:namedview
     id="base"
     pagecolor="#ffffff"
     bordercolor="#666666"
     borderopacity="1.0"
     inkscape:pageopacity="0.0"
     inkscape:pageshadow="2"
     inkscape:zoom="0.9899495"
     inkscape:cx="394.60468"
     inkscape:cy="51.176451"
     inkscape:document-units="mm"
     inkscape:current-layer="g1548"
     inkscape:document-rotation="0"
     showgrid="false"
     units="px"
     inkscape:window-width="1267"
     inkscape:window-height="1040"
     inkscape:window-x="2547"
     inkscape:window-y="14"
     inkscape:window-maximized="0"
     inkscape:pagecheckerboard="true"
     showborder="true"
     fit-margin-top="0"
     fit-margin-left="0"
     fit-margin-right="0"
     fit-margin-bottom="0" />
  <metadata
     id="metadata866">
    <rdf:RDF>
      <cc:Work
         rdf:about="">
        <dc:format>image/svg+xml</dc:format>
        <dc:type
           rdf:resource="http://purl.org/dc/dcmitype/StillImage" />
        <dc:title />
      </cc:Work>
    </rdf:RDF>
  </metadata>
  <g
     inkscape:label="Layer 1"
     inkscape:groupmode="layer"
     id="layer1"
     transform="translate(-115.05596,-86.046002)">
    <g
       id="g1655">
      <g
         id="g1610">
        <g
           id="g1599">
          <g
             id="g1548">
            <g
               aria-label="mistertfy64"
               id="text1434"
               style="font-size:101.6px;line-height:1.25;font-family:'CMU Serif';-inkscape-font-specification:'CMU Serif';stroke-width:0.264583">
              <path
                 d="m 184.52561,170.84525 v -35.07383 q 0,-12.89844 -11.06289,-12.89844 -7.59023,0 -11.16211,4.41523 -3.57187,4.41524 -3.57187,13.49375 v 30.06329 h -8.88008 v -35.07383 q 0,-6.44922 -2.72851,-9.67383 -2.67891,-3.22461 -8.4336,-3.22461 -7.54062,0 -11.06289,4.61367 -3.47265,4.61367 -3.47265,15.13086 v 28.22774 h -8.92969 v -54.4711 h 7.19336 l 1.33945,7.44141 h 0.49609 q 2.33164,-3.96875 6.54844,-6.20117 4.26641,-2.23243 9.525,-2.23243 12.79922,0 16.66875,9.12813 h 0.49609 q 2.6293,-4.36563 7.14375,-6.74688 4.56407,-2.38125 10.31875,-2.38125 9.22735,0 13.79141,4.7625 4.61367,4.7625 4.61367,15.23008 v 35.47071 z"
                 style="font-style:normal;font-variant:normal;font-weight:normal;font-stretch:normal;font-family:'Noto Sans';-inkscape-font-specification:'Noto Sans';fill:#000000;stroke-width:0.264583"
                 id="path82" />
              <path
                 d="m 219.15296,170.84525 h -8.92969 v -54.4711 h 8.92969 z m -9.62422,-69.20508 q 0,-2.976564 1.48828,-4.316017 1.53789,-1.339453 3.77031,-1.339453 2.0836,0 3.62149,1.339453 1.5875,1.339453 1.5875,4.316017 0,2.92695 -1.5875,4.31601 -1.53789,1.38907 -3.62149,1.38907 -2.23242,0 -3.77031,-1.38907 -1.48828,-1.38906 -1.48828,-4.31601 z"
                 style="font-style:normal;font-variant:normal;font-weight:normal;font-stretch:normal;font-family:'Noto Sans';-inkscape-font-specification:'Noto Sans';fill:#000000;stroke-width:0.264583"
                 id="path84" />
              <path
                 d="m 271.88772,155.8136 q 0,7.63985 -5.70508,11.85665 -5.70507,4.16718 -16.02382,4.16718 -10.76524,0 -17.11524,-3.42304 v -8.13594 q 8.9793,4.36562 17.31367,4.36562 6.74688,0 9.82266,-2.18281 3.07578,-2.18281 3.07578,-5.85391 0,-3.2246 -2.97656,-5.45703 -2.92695,-2.23242 -10.46758,-5.10976 -7.68945,-2.97656 -10.81484,-5.06016 -3.12539,-2.1332 -4.61367,-4.7625 -1.43868,-2.62929 -1.43868,-6.39961 0,-6.69726 5.45703,-10.56679 5.45704,-3.86954 14.98204,-3.86954 9.27695,0 17.36328,3.6711 l -3.02618,7.09414 q -8.28476,-3.47266 -14.93242,-3.47266 -5.55625,0 -8.43359,1.78594 -2.87734,1.73633 -2.87734,4.81211 0,2.97656 2.48046,4.96094 2.48047,1.93476 11.55899,5.40742 6.79648,2.53008 10.02109,4.71289 3.27422,2.18281 4.81211,4.91133 1.53789,2.72851 1.53789,6.54843 z"
                 style="font-style:normal;font-variant:normal;font-weight:normal;font-stretch:normal;font-family:'Noto Sans';-inkscape-font-specification:'Noto Sans';fill:#000000;stroke-width:0.264583"
                 id="path86" />
              <path
                 d="m 303.29046,164.54485 q 1.73633,0 4.06797,-0.34726 2.33164,-0.34727 3.52227,-0.79375 v 6.84609 q -1.24024,0.54571 -3.86954,1.0418 -2.57968,0.5457 -5.25859,0.5457 -15.97422,0 -15.97422,-16.81758 v -31.70039 h -7.68945 v -4.2664 l 7.78867,-3.57188 3.57188,-11.60859 h 5.3082 v 12.50156 h 15.72617 v 6.94531 h -15.72617 v 31.45235 q 0,4.71289 2.23242,7.24297 2.28203,2.53007 6.30039,2.53007 z"
                 style="font-style:normal;font-variant:normal;font-weight:normal;font-stretch:normal;font-family:'Noto Sans';-inkscape-font-specification:'Noto Sans';fill:#000000;stroke-width:0.264583"
                 id="path88" />
              <path
                 d="m 344.91273,171.83743 q -12.25352,0 -19.24844,-7.39179 -6.94531,-7.44141 -6.94531,-20.43907 0,-13.09687 6.49883,-20.83593 6.49883,-7.78868 17.56172,-7.78868 10.26914,0 16.37109,6.64766 6.10195,6.59805 6.10195,17.90899 v 5.40742 h -37.30625 q 0.24805,9.27695 4.71289,14.08906 4.46485,4.81211 12.65039,4.81211 4.36563,0 8.28477,-0.74414 3.91914,-0.79375 9.17773,-3.02617 v 7.83828 q -4.51445,1.93476 -8.4832,2.72851 -3.96875,0.79375 -9.37617,0.79375 z m -2.23242,-49.16289 q -6.39961,0 -10.12031,4.11758 -3.72071,4.11758 -4.41524,11.45977 h 27.73164 q -0.0992,-7.63985 -3.52226,-11.6086 -3.42305,-3.96875 -9.67383,-3.96875 z"
                 style="font-style:normal;font-variant:normal;font-weight:normal;font-stretch:normal;font-family:'Noto Sans';-inkscape-font-specification:'Noto Sans';fill:#000000;stroke-width:0.264583"
                 id="path90" />
              <path
                 d="m 404.44398,115.38196 q 3.62148,0 6.39961,0.59532 l -1.09141,8.23515 q -3.02617,-0.69453 -5.90351,-0.69453 -4.31602,0 -8.03672,2.38125 -3.67109,2.38125 -5.75469,6.59805 -2.08359,4.16719 -2.08359,9.27695 v 29.0711 h -8.92969 v -54.4711 h 7.34219 l 0.99219,9.97149 h 0.39687 q 3.12539,-5.40743 7.3918,-8.18555 4.2664,-2.77813 9.27695,-2.77813 z"
                 style="font-style:normal;font-variant:normal;font-weight:normal;font-stretch:normal;font-family:'Noto Sans';-inkscape-font-specification:'Noto Sans';fill:#000000;stroke-width:0.264583"
                 id="path92" />
              <path
                 d="m 439.22013,164.54485 q 1.73633,0 4.06797,-0.34726 2.33164,-0.34727 3.52227,-0.79375 v 6.84609 q -1.24024,0.54571 -3.86953,1.0418 -2.57969,0.5457 -5.2586,0.5457 -15.97422,0 -15.97422,-16.81758 v -31.70039 h -7.68945 v -4.2664 l 7.78867,-3.57188 3.57188,-11.60859 h 5.3082 v 12.50156 h 15.72617 v 6.94531 h -15.72617 v 31.45235 q 0,4.71289 2.23242,7.24297 2.28203,2.53007 6.30039,2.53007 z"
                 style="font-style:normal;font-variant:normal;font-weight:normal;font-stretch:normal;font-family:'Noto Sans';-inkscape-font-specification:'Noto Sans';fill:#000000;stroke-width:0.264583"
                 id="path94" />
              <path
                 d="m 482.77718,123.31946 h -13.74179 v 47.52579 h -8.92969 v -47.52579 h -9.525 v -4.16718 l 9.525,-3.07578 v -3.12539 q 0,-9.92188 4.31601,-14.882817 4.36563,-4.960937 13.39454,-4.960937 5.20898,0 10.56679,1.835547 l -2.38125,6.994917 q -4.61367,-1.48828 -8.08633,-1.48828 -4.51445,0 -6.69726,2.97657 -2.18281,2.97656 -2.18281,9.42578 v 3.52226 h 13.74179 z"
                 style="font-style:normal;font-variant:normal;font-weight:normal;font-stretch:normal;font-family:'Noto Sans';-inkscape-font-specification:'Noto Sans';fill:#000000;stroke-width:0.264583"
                 id="path96" />
              <path
                 d="m 484.11664,116.37415 h 9.57461 l 11.75742,31.00586 q 3.7207,10.12031 4.56406,14.8332 h 0.39688 q 0.44648,-1.83554 2.03398,-6.84609 1.5875,-5.06016 2.67891,-8.08633 l 11.06289,-30.90664 h 9.62421 l -23.46523,62.01172 q -3.42305,9.02891 -8.13594,12.94805 -4.71289,3.91914 -11.6582,3.91914 -3.7207,0 -7.3918,-0.84336 v -7.09414 q 2.48047,0.59531 5.95313,0.59531 4.2664,0 7.24297,-2.38125 2.97656,-2.33164 4.86172,-7.24297 l 2.82773,-7.24297 z"
                 style="font-style:normal;font-variant:normal;font-weight:normal;font-stretch:normal;font-family:'Noto Sans';-inkscape-font-specification:'Noto Sans';fill:#000000;stroke-width:0.264583"
                 id="path98" />
              <path
                 d="m 541.41545,139.83939 q 0,-5.20899 0.4961,-10.36836 0.5457,-5.15938 1.83554,-9.87227 1.33946,-4.7625 3.62149,-8.83047 2.28203,-4.06797 5.80429,-7.04453 3.52227,-3.02617 8.4336,-4.712889 4.91133,-1.736328 11.50937,-1.736328 0.94258,0 2.0836,0.04961 1.14101,0.04961 2.28203,0.198437 1.19062,0.09922 2.23242,0.297656 1.09141,0.148829 1.93477,0.396875 v 7.689449 q -1.73633,-0.59531 -3.91915,-0.89296 -2.18281,-0.29766 -4.31601,-0.29766 -4.46484,0 -7.88789,1.09141 -3.37344,1.04179 -5.85391,2.97656 -2.48047,1.93476 -4.16719,4.61367 -1.6371,2.67891 -2.6789,5.95312 -1.0418,3.22461 -1.53789,6.89571 -0.4961,3.67109 -0.64492,7.63984 h 0.59531 q 0.99219,-1.78594 2.38125,-3.32383 1.43867,-1.5875 3.32383,-2.6789 1.88515,-1.14102 4.21679,-1.78594 2.38125,-0.64492 5.30821,-0.64492 4.71289,0 8.53281,1.48828 3.81992,1.43867 6.49883,4.26641 2.6789,2.82773 4.11757,6.94531 1.48829,4.06797 1.48829,9.32656 0,5.65547 -1.53789,10.16992 -1.5379,4.51445 -4.41524,7.68945 -2.87734,3.1254 -6.94531,4.81211 -4.06797,1.68672 -9.12813,1.68672 -4.96093,0 -9.32656,-1.93476 -4.31601,-1.93477 -7.49101,-5.90352 -3.175,-3.96875 -5.01055,-9.97148 -1.83555,-6.00274 -1.83555,-14.18828 z m 23.56446,24.40781 q 2.97656,0 5.40742,-0.99219 2.48047,-1.0418 4.2664,-3.07578 1.78594,-2.08359 2.72852,-5.20898 0.99219,-3.175 0.99219,-7.49102 0,-3.47266 -0.84336,-6.20117 -0.79375,-2.77813 -2.43086,-4.71289 -1.63711,-1.93477 -4.11758,-2.97656 -2.43086,-1.0418 -5.70508,-1.0418 -3.32383,0 -6.10195,1.19062 -2.72852,1.14102 -4.66328,3.02618 -1.93477,1.83554 -3.02617,4.21679 -1.0418,2.38125 -1.0418,4.7625 0,3.32383 0.89297,6.64766 0.94258,3.27422 2.72851,5.90351 1.83555,2.6293 4.56407,4.31602 2.72851,1.63711 6.35,1.63711 z"
                 style="font-style:normal;font-variant:normal;font-weight:normal;font-stretch:normal;font-family:'Noto Sans';-inkscape-font-specification:'Noto Sans';fill:#000000;stroke-width:0.264583"
                 id="path100" />
              <path
                 d="m 645.69436,154.57337 h -10.56679 v 16.27188 h -8.73125 v -16.27188 h -33.48633 v -7.88789 l 32.89102,-48.766015 h 9.32656 v 48.418745 h 10.56679 z m -19.29804,-8.23516 v -17.66093 q 0,-2.77813 0.0496,-5.8043 0.0992,-3.07578 0.19843,-5.95312 0.0992,-2.92696 0.19844,-5.45704 0.14883,-2.53007 0.19844,-4.21679 h -0.44648 q -0.34727,0.99219 -0.89297,2.23242 -0.4961,1.19062 -1.14102,2.43086 -0.59531,1.19062 -1.24023,2.33164 -0.64493,1.14101 -1.19063,1.93476 l -20.38945,30.1625 z"
                 style="font-style:normal;font-variant:normal;font-weight:normal;font-stretch:normal;font-family:'Noto Sans';-inkscape-font-specification:'Noto Sans';fill:#000000;stroke-width:0.264583"
                 id="path102" />
            </g>
            <rect
               style="fill:#000000;fill-opacity:1;stroke:#000000;stroke-width:0.284151"
               id="rect1440"
               width="291.46118"
               height="8.1825151"
               x="210.44693"
               y="170.48283" />
            <rect
               style="fill:#000000;fill-opacity:1;stroke:#000000;stroke-width:0.30003"
               id="rect1440-2"
               width="325.57178"
               height="8.1667757"
               x="209.87309"
               y="88.946373" />
          </g>
        </g>
      </g>
    </g>
  </g>
</svg>
