<?xml version="1.0" encoding="UTF-8" standalone="no"?>
<svg
   height="41.599998"
   viewBox="0 -960 831.99997 831.99997"
   width="41.599998"
   fill="#e3e3e3"
   version="1.1"
   id="svg1"
   sodipodi:docname="archive.svg"
   inkscape:version="1.4.2 (ebf0e94, 2025-05-08)"
   xmlns:inkscape="http://www.inkscape.org/namespaces/inkscape"
   xmlns:sodipodi="http://sodipodi.sourceforge.net/DTD/sodipodi-0.dtd"
   xmlns="http://www.w3.org/2000/svg"
   xmlns:svg="http://www.w3.org/2000/svg">
  <defs
     id="defs1" />
  <sodipodi:namedview
     id="namedview1"
     pagecolor="#ffffff"
     bordercolor="#000000"
     borderopacity="0.25"
     inkscape:showpageshadow="2"
     inkscape:pageopacity="0.0"
     inkscape:pagecheckerboard="0"
     inkscape:deskcolor="#d1d1d1"
     inkscape:zoom="23.8125"
     inkscape:cx="20.808399"
     inkscape:cy="20.808399"
     inkscape:window-width="2560"
     inkscape:window-height="1346"
     inkscape:window-x="1920"
     inkscape:window-y="746"
     inkscape:window-maximized="1"
     inkscape:current-layer="svg1" />
  <path
     d="M 113,-128 Q 82.25,-128 61.13,-149.13 40,-170.25 40,-201 V -689 Q 23,-695.63 11.5,-713.2 0,-730.78 0,-753 V -887 Q 0,-917.75 21.13,-938.88 42.25,-960 73,-960 h 686 q 30.75,0 51.88,21.12 Q 832,-917.75 832,-887 v 134 q 0,22.22 -11.5,39.8 -11.5,17.57 -28.5,24.2 v 488 q 0,30.75 -21.12,51.87 Q 749.75,-128 719,-128 Z m 0,-552 v 479 H 720 V -680 Z M 73,-752 H 760 V -887 H 73 Z m 218,281 h 251 v -74 H 291 Z m 126,31 z"
     id="path1"
     style="opacity:0.25" />
</svg>
