<?xml version="1.0" encoding="UTF-8" standalone="no"?>
<svg
   height="40.200001"
   viewBox="0 -960 804.00002 804.00002"
   width="40.200001"
   fill="#e3e3e3"
   version="1.1"
   id="svg1"
   sodipodi:docname="edit_off_144dp_E3E3E3_FILL0_wght400_GRAD0_opsz48.svg"
   inkscape:version="1.4.2 (ebf0e94, 2025-05-08)"
   xmlns:inkscape="http://www.inkscape.org/namespaces/inkscape"
   xmlns:sodipodi="http://sodipodi.sourceforge.net/DTD/sodipodi-0.dtd"
   xmlns="http://www.w3.org/2000/svg"
   xmlns:svg="http://www.w3.org/2000/svg">
  <defs
     id="defs1" />
  <sodipodi:namedview
     id="namedview1"
     pagecolor="#ffffff"
     bordercolor="#000000"
     borderopacity="0.25"
     inkscape:showpageshadow="2"
     inkscape:pageopacity="0.0"
     inkscape:pagecheckerboard="0"
     inkscape:deskcolor="#d1d1d1"
     inkscape:zoom="23.8125"
     inkscape:cx="21.270341"
     inkscape:cy="18.96063"
     inkscape:window-width="2560"
     inkscape:window-height="1346"
     inkscape:window-x="1920"
     inkscape:window-y="746"
     inkscape:window-maximized="1"
     inkscape:current-layer="svg1" />
  <path
     d="m 529,-556 -42,-42 154,-154 -44,-44 -154,154 -42,-42 239,-239 q 8,-8 19,-12.5 11,-4.5 23,-4.5 11,0 22,4.5 11,4.5 20,12.5 l 44,44 q 9,9 13,20 4,11 4,22 0,11 -4.5,22.5 Q 776,-803 768,-795 Z m -403,275 h 44 l 233,-233 -22,-22 -22,-22 -233,233 z M 762,-156 445,-472 194,-221 H 66 V -349 L 317,-600 0,-918 l 42,-42 762,762 z m -38,-682 -41,-41 z m -127,42 44,44 z m -216,260 -22,-22 44,44 z"
     id="path1"
     style="opacity:0.25" />
</svg>
