<?xml version="1.0" encoding="UTF-8" standalone="no"?>
<svg
   height="18"
   viewBox="0 -960 720 720"
   width="18"
   fill="#ffffff"
   version="1.1"
   id="svg1"
   sodipodi:docname="join.svg"
   inkscape:version="1.4.2 (ebf0e94, 2025-05-08)"
   xmlns:inkscape="http://www.inkscape.org/namespaces/inkscape"
   xmlns:sodipodi="http://sodipodi.sourceforge.net/DTD/sodipodi-0.dtd"
   xmlns="http://www.w3.org/2000/svg"
   xmlns:svg="http://www.w3.org/2000/svg">
  <defs
     id="defs1" />
  <sodipodi:namedview
     id="namedview1"
     pagecolor="#ffffff"
     bordercolor="#000000"
     borderopacity="0.25"
     inkscape:showpageshadow="2"
     inkscape:pageopacity="0.0"
     inkscape:pagecheckerboard="0"
     inkscape:deskcolor="#d1d1d1"
     inkscape:zoom="44.291667"
     inkscape:cx="8.9971778"
     inkscape:cy="8.9971778"
     inkscape:window-width="2556"
     inkscape:window-height="1290"
     inkscape:window-x="1920"
     inkscape:window-y="842"
     inkscape:window-maximized="1"
     inkscape:current-layer="svg1" />
  <path
     d="m 320,-560 q 17,0 28.5,-11.5 Q 360,-583 360,-600 360,-617 348.5,-628.5 337,-640 320,-640 q -17,0 -28.5,11.5 -11.5,11.5 -11.5,28.5 0,17 11.5,28.5 11.5,11.5 28.5,11.5 z m -160,320 v -80 l 240,-40 v -445 q 0,-15 -9,-27 -9,-12 -23,-14 l -208,-34 v -80 l 220,36 q 44,8 72,41 28,33 28,77 v 512 z m -160,0 v -80 h 80 v -560 q 0,-34 23.5,-57 23.5,-23 56.5,-23 h 400 q 34,0 57,23 23,23 23,57 v 560 h 80 v 80 z m 160,-80 H 560 V -880 H 160 Z"
     id="path1"
     style="opacity:0.25" />
</svg>
