<?xml version="1.0" encoding="UTF-8" standalone="no"?>
<svg
   height="32"
   viewBox="0 -960 640 640"
   width="32"
   fill="#e3e3e3"
   version="1.1"
   id="svg1"
   sodipodi:docname="retry.svg"
   inkscape:version="1.4.2 (ebf0e94, 2025-05-08)"
   xmlns:inkscape="http://www.inkscape.org/namespaces/inkscape"
   xmlns:sodipodi="http://sodipodi.sourceforge.net/DTD/sodipodi-0.dtd"
   xmlns="http://www.w3.org/2000/svg"
   xmlns:svg="http://www.w3.org/2000/svg">
  <defs
     id="defs1" />
  <sodipodi:namedview
     id="namedview1"
     pagecolor="#ffffff"
     bordercolor="#000000"
     borderopacity="0.25"
     inkscape:showpageshadow="2"
     inkscape:pageopacity="0.0"
     inkscape:pagecheckerboard="0"
     inkscape:deskcolor="#d1d1d1"
     inkscape:zoom="23.8125"
     inkscape:cx="15.979003"
     inkscape:cy="15.979003"
     inkscape:window-width="2560"
     inkscape:window-height="1346"
     inkscape:window-x="1920"
     inkscape:window-y="746"
     inkscape:window-maximized="1"
     inkscape:current-layer="svg1" />
  <path
     d="M 320,-320 Q 187,-320 93.5,-413.5 0,-507 0,-640 0,-773 93.5,-866.5 187,-960 320,-960 q 85,0 149,34.5 64,34.5 111,94.5 v -129 h 60 v 254 H 386 v -60 h 168 q -38,-60 -97,-97 -59,-37 -137,-37 -109,0 -184.5,75.5 Q 60,-749 60,-640 q 0,109 75.5,184.5 75.5,75.5 184.5,75.5 83,0 152,-47.5 69,-47.5 96,-125.5 h 62 q -29,105 -115,169 -86,64 -195,64 z"
     id="path1"
     style="opacity:0.25" />
</svg>
