<?xml version="1.0" encoding="UTF-8" standalone="no"?>
<svg
   height="41.650002"
   viewBox="0 -960 839.00002 833.00003"
   width="41.950001"
   fill="#e3e3e3"
   version="1.1"
   id="svg1"
   sodipodi:docname="settings.svg"
   inkscape:version="1.4.2 (ebf0e94, 2025-05-08)"
   xmlns:inkscape="http://www.inkscape.org/namespaces/inkscape"
   xmlns:sodipodi="http://sodipodi.sourceforge.net/DTD/sodipodi-0.dtd"
   xmlns="http://www.w3.org/2000/svg"
   xmlns:svg="http://www.w3.org/2000/svg">
  <defs
     id="defs1" />
  <sodipodi:namedview
     id="namedview1"
     pagecolor="#ffffff"
     bordercolor="#000000"
     borderopacity="0.25"
     inkscape:showpageshadow="2"
     inkscape:pageopacity="0.0"
     inkscape:pagecheckerboard="0"
     inkscape:deskcolor="#d1d1d1"
     inkscape:zoom="23.8125"
     inkscape:cx="20.934383"
     inkscape:cy="20.850394"
     inkscape:window-width="2560"
     inkscape:window-height="1346"
     inkscape:window-x="1920"
     inkscape:window-y="746"
     inkscape:window-maximized="1"
     inkscape:current-layer="svg1" />
  <path
     d="m 316,-127 -21,-130 q -16,-6 -35.31,-16.73 Q 240.38,-284.45 226,-296 L 104,-241 0,-427 109,-508.16 q -1,-6.77 -1.5,-17.64 -0.5,-10.87 -0.5,-19.2 0,-7.46 0.5,-17.52 0.5,-10.07 1.5,-18.48 l -109,-80 104,-185 120,55 q 14,-11 34,-22.5 20,-11.5 37,-17.5 l 21,-129 h 207 l 20,129 q 17,6 37.5,17.5 20.5,11.5 33.5,22.5 l 121,-55 104,185 -111,79 q 1,9 2,20 1,11 1,19 0,8 -1,18.5 -1,10.5 -1,18.5 l 109,79 -104,186 -122,-55 q -14,11 -33,22.5 -19,11.5 -35,16.5 l -21,130 z m 59,-73 h 88.21 l 14.04,-113 q 33.75,-8 63.66,-25.08 29.92,-17.09 55.27,-41.92 l 104.82,46 40,-72 -93,-69 q 4,-16.64 7,-33.96 3,-17.33 3,-35.19 0,-17.85 -2.5,-34.35 Q 653,-595 649,-613 l 92,-68 -39,-72 -106,45 q -23,-26 -53.07,-44.29 -30.08,-18.3 -66.33,-23.71 L 464,-887 h -90 l -13,111 q -36,8 -66.5,25.5 Q 264,-733 241,-708 l -103.72,-45 -41.28,72 93,69 q -4,18 -6.5,34.5 -2.5,16.5 -2.5,32.98 0,16.52 2.5,33.52 2.5,17 6.5,36 l -93,69 41,72 105,-46 q 26,26 56,43 30,17 63,25 z m 43,-200 q 59.8,0 101.9,-42.06 42.1,-42.06 42.1,-101.8 0,-59.74 -42.1,-101.94 Q 477.8,-688 418,-688 q -60,0 -102,42.06 -42,42.06 -42,101.8 0,59.74 42,101.94 42,42.2 102,42.2 z m 1,-144 z"
     id="path1"
     style="opacity:0.25" />
</svg>
